<?xml version="1.0" standalone="no"?>
<!DOCTYPE svg PUBLIC "-//W3C//DTD SVG 20010904//EN"
 "http://www.w3.org/TR/2001/REC-SVG-20010904/DTD/svg10.dtd">
<svg version="1.0" xmlns="http://www.w3.org/2000/svg"
 width="700.000000pt" height="700.000000pt" viewBox="0 0 700.000000 700.000000"
 preserveAspectRatio="xMidYMid meet">
<metadata>
Created by potrace 1.14, written by Peter Selinger 2001-2017
</metadata>
<g transform="translate(0.000000,700.000000) scale(0.100000,-0.100000)"
fill="#000000" stroke="none">
<path d="M2135 6993 c-122 -15 -259 -36 -305 -48 -30 -8 -66 -16 -80 -19 -71
-14 -273 -83 -354 -122 -28 -13 -53 -24 -56 -24 -15 0 -221 -117 -303 -172
-484 -326 -825 -811 -967 -1378 -68 -270 -65 -199 -65 -1730 0 -1286 1 -1393
18 -1500 107 -681 472 -1252 1037 -1622 219 -144 508 -264 770 -322 251 -55
231 -55 1710 -52 751 1 1379 5 1395 8 17 3 44 8 60 11 17 4 50 9 75 12 77 10
248 55 369 97 457 157 875 476 1150 877 171 250 298 542 356 818 54 260 53
236 51 1713 -2 1253 -3 1374 -19 1470 -10 58 -23 123 -29 145 -5 22 -12 51
-14 65 -8 46 -76 254 -111 340 -296 718 -946 1249 -1708 1396 -215 42 -237 42
-1620 42 -731 -1 -1343 -3 -1360 -5z"/>
</g>
</svg>
