<svg xmlns="http://www.w3.org/2000/svg" version="1.1" xmlns:xlink="http://www.w3.org/1999/xlink" width="60" height="60"><svg id="SvgjsSvg1001" xmlns="http://www.w3.org/2000/svg" version="1.1" viewBox="0 0 60 60">
  <!-- Generator: Adobe Illustrator 29.5.1, SVG Export Plug-In . SVG Version: 2.1.0 Build 141)  -->
  <rect width="60" height="60" rx="20" ry="20" style="fill: #b9e2f3;"></rect>
  <path d="M18.82,45.73c-4.7.8-8.64-2.72-9-7.32-.44-5.66-.49-16.03,1.73-21.16C19.68-1.53,47.74,3.38,49.31,23.15c.33,4.21.37,11.85,0,16.04s-4.6,7.05-8.78,6.57c-.51,2.23-.25,4.62.36,6.82h-11.34v-5.08c5.49,0,10.65-2.92,12.66-8.16.23-.61.83-2.34.83-2.89v-5.18h-3.91c-.08,0-.04.93-.39,1.47-1.12,1.75-4.24,1.35-4.65-.63-.61-2.97,2.44-4.43,4.56-2.4.23.22.25.59.28.59h4.11v-5.08h-26.98v4.79s.27.29.29.29h3.71c.17,0,1.18-1.72,2.91-1.55,3.81.36,2.44,6.52-1.38,4.91-1.75-.74-1.28-2.38-1.43-2.38h-3.81s-.29.27-.29.29v4.11c0,2.72,2.61,7.47,4.69,9.09-.39.31-1.52.9-1.96.98h0l.03-.02Z" style="fill: #1a1918;"></path>
  <path d="M23.7,46.32c.91,2.43,3.28,4.38,5.87,4.69v1.56h-11.14c.56-2.24.37-4.54.39-6.84.43-.07,1.56-.66,1.96-.98.5.39,2.28,1.28,2.93,1.56h0Z" style="fill: #6e8fb1;"></path>
  <path d="M29.57,25.2h13.49v5.08h-4.11s-.05-.37-.28-.59c-2.12-2.03-5.17-.56-4.56,2.4.41,1.99,3.52,2.38,4.65.63.35-.54.31-1.47.39-1.47h3.91v5.18c0,.55-.59,2.28-.83,2.89-2.01,5.24-7.17,8.16-12.66,8.16v-4.69c1.05.02,2.37-.28,2.94-1.26.81-1.38-1.89-2.29-2.94-2.26v-14.08h0Z" style="fill: #d9cea4;"></path>
  <path d="M29.57,25.2v14.08c-.07,0-1.25.24-1.38.29-3.04.99-1.25,3.19,1.38,3.23v4.69c-2.15,0-3.89-.32-5.87-1.17-.65-.28-2.43-1.17-2.93-1.56-2.08-1.62-4.69-6.37-4.69-9.09v-4.11s.27-.29.29-.29h3.81c.15,0-.32,1.65,1.43,2.38,3.82,1.61,5.19-4.56,1.38-4.91-1.73-.16-2.74,1.55-2.91,1.55h-3.71s-.29-.27-.29-.29v-4.79h13.49Z" style="fill: #e2dce6;"></path>
  <path d="M29.57,47.49v3.52c-2.58-.31-4.96-2.26-5.87-4.69,1.97.85,3.72,1.17,5.87,1.17Z" style="fill: #928889;"></path>
  <path d="M29.57,42.8c-2.62-.04-4.42-2.25-1.38-3.23.13-.04,1.31-.28,1.38-.29,1.05-.03,3.75.88,2.94,2.26-.57.98-1.89,1.28-2.94,1.26h0Z" style="fill: #c26754;"></path>
</svg><style>@media (prefers-color-scheme: light) { :root { filter: none; } }
@media (prefers-color-scheme: dark) { :root { filter: none; } }
</style></svg>